# xmcd
#
# Track frame offsets:
#	150
#	14121
#	30492
#	41912
#	62802
#	73688
#	84728
#	105012
#	118785
#	130520
#	146330
#
# Disc length: 2703 seconds
#
# Revision: 0
# Processed by: cddbd v1.5.2PL0 Copyright (c) Steve Scherf et al.
# Submitted via: audiograbber 1.83.01
#
DISCID=930a8d0b
DTITLE=Bob Wayne - Blood To Dust
DYEAR=2006
DGENRE=Country
TTITLE0=Road Bound
TTITLE1=Ghost Town
TTITLE2=27 Years
TTITLE3=Here Comes the Bride
TTITLE4=La Diabla
TTITLE5=My Only Friend
TTITLE6=Blood to Dust
TTITLE7=5 In The Morning
TTITLE8=Darkness
TTITLE9=Work of The Devil
TTITLE10=Cardboard Blues
EXTD=
EXTT0=
EXTT1=
EXTT2=
EXTT3=
EXTT4=
EXTT5=
EXTT6=
EXTT7=
EXTT8=
EXTT9=
EXTT10=
PLAYORDER=
